<svg id="Layer_1" data-name="Layer 1" xmlns="http://www.w3.org/2000/svg" viewBox="0 0 563.89 845.83"><defs><style>.cls-1{fill:#5fa1ee;}.cls-2{fill:#b364c2;}</style></defs><path class="cls-1" d="M753.69-730.2A281.34,281.34,0,0,1,731.2-619.68a284.61,284.61,0,0,1-13.8,27.9,283.23,283.23,0,0,1-78.15,88.36C631.8-497.91,624-492.8,616.07-488a280.56,280.56,0,0,1-144.33,39.76A280.41,280.41,0,0,1,332.46-485.1a147.4,147.4,0,0,1,65.19-88.18,172.46,172.46,0,0,0,74.09,16.64,172.45,172.45,0,0,0,77.34-18.22,173.7,173.7,0,0,0,25.31-15.44,173.93,173.93,0,0,0,63-88.24,171.37,171.37,0,0,0,6.25-27.86,174.75,174.75,0,0,0,1.68-23.8A173.58,173.58,0,0,0,471.74-903.79,173.57,173.57,0,0,0,298.17-730.2a175.48,175.48,0,0,0,2.17,27.4,310.93,310.93,0,0,0-85.69,88.48A280.75,280.75,0,0,1,189.8-730.2v-282H471.74a281.11,281.11,0,0,1,199.38,82.58A281.09,281.09,0,0,1,753.69-730.2Z" transform="translate(-189.8 1012.16)"/><path class="cls-2" d="M730-561.5a311.07,311.07,0,0,1-83.93,85.81c-.87.61-1.77,1.19-2.66,1.78a174.86,174.86,0,0,1,1.9,25.64A173.58,173.58,0,0,1,471.74-274.69,173.58,173.58,0,0,1,298.17-448.27,173.57,173.57,0,0,1,471.74-621.84a172.84,172.84,0,0,1,75.74,17.37c.44-.26.89-.49,1.33-.76A147.45,147.45,0,0,0,613.53-692a280.55,280.55,0,0,0-141.79-38.21h0C316-730.21,189.8-604,189.8-448.27v282H471.74c155.72,0,282-126.23,282-281.95h0A280.9,280.9,0,0,0,730-561.5Z" transform="translate(-189.8 1012.16)"/></svg>