<?xml version="1.0" encoding="utf-8"?>
<!-- Generator: Adobe Illustrator 25.2.1, SVG Export Plug-In . SVG Version: 6.00 Build 0)  -->
<svg version="1.1" id="Layer_1" xmlns="http://www.w3.org/2000/svg" xmlns:xlink="http://www.w3.org/1999/xlink" x="0px" y="0px"
	 viewBox="0 0 1005.6 371.1" style="enable-background:new 0 0 1005.6 371.1;" xml:space="preserve">
<style type="text/css">
	.st0{fill:#5FA1EE;}
	.st1{fill:#B364C2;}
	.st2{font-family:'Fieldwork-Hum-Hair-Demo';}
	.st3{font-size:170.7339px;}
</style>
<path class="st0" d="M227.9,142.8c0,11.5-2.3,22.9-6.8,33.5c-1.2,2.9-2.6,5.7-4.2,8.5c-5.9,10.5-14,19.6-23.7,26.8
	c-2.3,1.7-4.6,3.2-7,4.7c-13.2,7.9-28.4,12.1-43.8,12.1c-14.8,0-29.4-3.8-42.2-11.2c2.9-11.1,10-20.7,19.8-26.7
	c7,3.3,14.7,5.1,22.5,5c8.1,0,16.2-1.9,23.5-5.5c2.7-1.3,5.3-2.9,7.7-4.7c9.1-6.7,15.8-16,19.1-26.8c0.9-2.8,1.5-5.6,1.9-8.4
	c0.3-2.4,0.5-4.8,0.5-7.2c0-29.1-23.6-52.6-52.6-52.6c0,0,0,0,0,0c-29.1,0-52.6,23.6-52.6,52.6c0,0,0,0,0,0c0,2.8,0.2,5.6,0.7,8.3
	c-10.4,7.1-19.2,16.2-26,26.8c-5-11-7.6-23-7.5-35.1V57.3h85.5c22.7,0,44.4,9,60.5,25C218.9,98.3,228,120.1,227.9,142.8z"/>
<path class="st1" d="M220.7,194c-6.7,10.2-15.4,19.1-25.5,26c-0.3,0.2-0.5,0.4-0.8,0.5c0.4,2.6,0.6,5.2,0.6,7.8
	c0,29.1-23.6,52.6-52.6,52.6c-29.1,0-52.6-23.6-52.6-52.6c0-29.1,23.6-52.6,52.6-52.6l0,0c8,0,15.8,1.8,23,5.3
	c0.1-0.1,0.3-0.1,0.4-0.2c9.6-6,16.7-15.4,19.6-26.3c-13.1-7.6-27.9-11.6-43-11.6l0,0c-47.2,0-85.5,38.3-85.5,85.5v85.5h85.5
	c47.2,0,85.5-38.3,85.5-85.5l0,0C227.9,216.5,225.5,204.8,220.7,194z"/>
<text transform="matrix(1 0 0 1 269.9552 239.0898)" class="st2 st3">Bismuth</text>
</svg>
